<mxfile host="Electron" modified="2024-09-27T08:45:18.475Z" agent="Mozilla/5.0 (Windows NT 10.0; Win64; x64) AppleWebKit/537.36 (KHTML, like Gecko) draw.io/22.0.2 Chrome/114.0.5735.289 Electron/25.8.4 Safari/537.36" etag="upEwM61avGyzNwkFQl49" version="22.0.2" type="device">
  <diagram id="R2lEEEUBdFMjLlhIrx00" name="Page-1">
    <mxGraphModel dx="941" dy="644" grid="1" gridSize="10" guides="1" tooltips="1" connect="1" arrows="1" fold="1" page="1" pageScale="1" pageWidth="850" pageHeight="1100" math="0" shadow="0" extFonts="Permanent Marker^https://fonts.googleapis.com/css?family=Permanent+Marker">
      <root>
        <mxCell id="0" />
        <mxCell id="1" parent="0" />
        <mxCell id="yjiUdxxGRsqAywd-m_y8-1" value="User&amp;nbsp;" style="rounded=0;whiteSpace=wrap;html=1;" vertex="1" parent="1">
          <mxGeometry x="170" y="180" width="120" height="60" as="geometry" />
        </mxCell>
        <mxCell id="yjiUdxxGRsqAywd-m_y8-2" value="create" style="rhombus;whiteSpace=wrap;html=1;" vertex="1" parent="1">
          <mxGeometry x="365" y="180" width="120" height="60" as="geometry" />
        </mxCell>
        <mxCell id="yjiUdxxGRsqAywd-m_y8-3" value="name" style="ellipse;whiteSpace=wrap;html=1;" vertex="1" parent="1">
          <mxGeometry x="60" y="100" width="90" height="50" as="geometry" />
        </mxCell>
        <mxCell id="yjiUdxxGRsqAywd-m_y8-4" value="PublicaciÃ³n" style="rounded=0;whiteSpace=wrap;html=1;" vertex="1" parent="1">
          <mxGeometry x="570" y="170" width="120" height="60" as="geometry" />
        </mxCell>
        <mxCell id="yjiUdxxGRsqAywd-m_y8-5" value="username" style="ellipse;whiteSpace=wrap;html=1;" vertex="1" parent="1">
          <mxGeometry x="60" y="270" width="90" height="50" as="geometry" />
        </mxCell>
        <mxCell id="yjiUdxxGRsqAywd-m_y8-6" value="password" style="ellipse;whiteSpace=wrap;html=1;" vertex="1" parent="1">
          <mxGeometry x="185" y="50" width="90" height="50" as="geometry" />
        </mxCell>
        <mxCell id="yjiUdxxGRsqAywd-m_y8-7" value="email" style="ellipse;whiteSpace=wrap;html=1;" vertex="1" parent="1">
          <mxGeometry x="30" y="200" width="70" height="50" as="geometry" />
        </mxCell>
        <mxCell id="yjiUdxxGRsqAywd-m_y8-8" value="surname" style="ellipse;whiteSpace=wrap;html=1;" vertex="1" parent="1">
          <mxGeometry x="170" y="300" width="90" height="50" as="geometry" />
        </mxCell>
        <mxCell id="yjiUdxxGRsqAywd-m_y8-9" value="" style="endArrow=none;html=1;rounded=0;exitX=1;exitY=1;exitDx=0;exitDy=0;entryX=0;entryY=0;entryDx=0;entryDy=0;" edge="1" parent="1" source="yjiUdxxGRsqAywd-m_y8-3" target="yjiUdxxGRsqAywd-m_y8-1">
          <mxGeometry width="50" height="50" relative="1" as="geometry">
            <mxPoint x="400" y="360" as="sourcePoint" />
            <mxPoint x="450" y="310" as="targetPoint" />
          </mxGeometry>
        </mxCell>
        <mxCell id="yjiUdxxGRsqAywd-m_y8-10" value="" style="endArrow=none;html=1;rounded=0;exitX=0.5;exitY=1;exitDx=0;exitDy=0;" edge="1" parent="1" source="yjiUdxxGRsqAywd-m_y8-6" target="yjiUdxxGRsqAywd-m_y8-1">
          <mxGeometry width="50" height="50" relative="1" as="geometry">
            <mxPoint x="147" y="153" as="sourcePoint" />
            <mxPoint x="180" y="190" as="targetPoint" />
          </mxGeometry>
        </mxCell>
        <mxCell id="yjiUdxxGRsqAywd-m_y8-16" value="" style="endArrow=none;html=1;rounded=0;exitX=1;exitY=0.5;exitDx=0;exitDy=0;entryX=0;entryY=0.5;entryDx=0;entryDy=0;" edge="1" parent="1" source="yjiUdxxGRsqAywd-m_y8-7" target="yjiUdxxGRsqAywd-m_y8-1">
          <mxGeometry width="50" height="50" relative="1" as="geometry">
            <mxPoint x="147" y="153" as="sourcePoint" />
            <mxPoint x="180" y="190" as="targetPoint" />
          </mxGeometry>
        </mxCell>
        <mxCell id="yjiUdxxGRsqAywd-m_y8-17" value="photo" style="ellipse;whiteSpace=wrap;html=1;" vertex="1" parent="1">
          <mxGeometry x="740" y="180" width="90" height="50" as="geometry" />
        </mxCell>
        <mxCell id="yjiUdxxGRsqAywd-m_y8-18" value="description_ad" style="ellipse;whiteSpace=wrap;html=1;" vertex="1" parent="1">
          <mxGeometry x="680" y="90" width="90" height="50" as="geometry" />
        </mxCell>
        <mxCell id="yjiUdxxGRsqAywd-m_y8-19" value="price" style="ellipse;whiteSpace=wrap;html=1;" vertex="1" parent="1">
          <mxGeometry x="600" y="310" width="90" height="50" as="geometry" />
        </mxCell>
        <mxCell id="yjiUdxxGRsqAywd-m_y8-20" value="state" style="ellipse;whiteSpace=wrap;html=1;" vertex="1" parent="1">
          <mxGeometry x="690" y="260" width="90" height="50" as="geometry" />
        </mxCell>
        <mxCell id="yjiUdxxGRsqAywd-m_y8-21" value="id_ad" style="ellipse;whiteSpace=wrap;html=1;" vertex="1" parent="1">
          <mxGeometry x="560" y="80" width="90" height="50" as="geometry" />
        </mxCell>
        <mxCell id="yjiUdxxGRsqAywd-m_y8-22" value="university" style="ellipse;whiteSpace=wrap;html=1;" vertex="1" parent="1">
          <mxGeometry x="530" y="250" width="90" height="50" as="geometry" />
        </mxCell>
        <mxCell id="yjiUdxxGRsqAywd-m_y8-24" value="" style="endArrow=none;html=1;rounded=0;exitX=1;exitY=0.5;exitDx=0;exitDy=0;entryX=0;entryY=0.5;entryDx=0;entryDy=0;" edge="1" parent="1" target="yjiUdxxGRsqAywd-m_y8-2">
          <mxGeometry width="50" height="50" relative="1" as="geometry">
            <mxPoint x="290" y="207.5" as="sourcePoint" />
            <mxPoint x="360" y="192.5" as="targetPoint" />
          </mxGeometry>
        </mxCell>
        <mxCell id="yjiUdxxGRsqAywd-m_y8-25" value="" style="endArrow=none;html=1;rounded=0;entryX=0;entryY=0.5;entryDx=0;entryDy=0;" edge="1" parent="1" target="yjiUdxxGRsqAywd-m_y8-4">
          <mxGeometry width="50" height="50" relative="1" as="geometry">
            <mxPoint x="485" y="210" as="sourcePoint" />
            <mxPoint x="560" y="211.25" as="targetPoint" />
          </mxGeometry>
        </mxCell>
        <mxCell id="yjiUdxxGRsqAywd-m_y8-26" value="" style="endArrow=none;html=1;rounded=0;entryX=0.5;entryY=1;entryDx=0;entryDy=0;" edge="1" parent="1" target="yjiUdxxGRsqAywd-m_y8-21">
          <mxGeometry width="50" height="50" relative="1" as="geometry">
            <mxPoint x="600" y="170" as="sourcePoint" />
            <mxPoint x="650" y="120" as="targetPoint" />
          </mxGeometry>
        </mxCell>
        <mxCell id="yjiUdxxGRsqAywd-m_y8-27" value="" style="endArrow=none;html=1;rounded=0;entryX=0;entryY=1;entryDx=0;entryDy=0;exitX=0.75;exitY=0;exitDx=0;exitDy=0;" edge="1" parent="1" source="yjiUdxxGRsqAywd-m_y8-4" target="yjiUdxxGRsqAywd-m_y8-18">
          <mxGeometry width="50" height="50" relative="1" as="geometry">
            <mxPoint x="610" y="180" as="sourcePoint" />
            <mxPoint x="615" y="140" as="targetPoint" />
          </mxGeometry>
        </mxCell>
        <mxCell id="yjiUdxxGRsqAywd-m_y8-28" value="" style="endArrow=none;html=1;rounded=0;entryX=0;entryY=0.5;entryDx=0;entryDy=0;exitX=0.75;exitY=0;exitDx=0;exitDy=0;" edge="1" parent="1" target="yjiUdxxGRsqAywd-m_y8-17">
          <mxGeometry width="50" height="50" relative="1" as="geometry">
            <mxPoint x="690" y="207" as="sourcePoint" />
            <mxPoint x="723" y="170" as="targetPoint" />
          </mxGeometry>
        </mxCell>
        <mxCell id="yjiUdxxGRsqAywd-m_y8-29" value="(0,N)" style="text;html=1;strokeColor=none;fillColor=none;align=center;verticalAlign=middle;whiteSpace=wrap;rounded=0;" vertex="1" parent="1">
          <mxGeometry x="520" y="170" width="60" height="30" as="geometry" />
        </mxCell>
        <mxCell id="yjiUdxxGRsqAywd-m_y8-30" value="(1,1)" style="text;html=1;strokeColor=none;fillColor=none;align=center;verticalAlign=middle;whiteSpace=wrap;rounded=0;" vertex="1" parent="1">
          <mxGeometry x="280" y="180" width="60" height="30" as="geometry" />
        </mxCell>
        <mxCell id="yjiUdxxGRsqAywd-m_y8-31" value="" style="endArrow=none;html=1;rounded=0;exitX=1;exitY=0;exitDx=0;exitDy=0;entryX=0;entryY=1;entryDx=0;entryDy=0;" edge="1" parent="1" source="yjiUdxxGRsqAywd-m_y8-5" target="yjiUdxxGRsqAywd-m_y8-1">
          <mxGeometry width="50" height="50" relative="1" as="geometry">
            <mxPoint x="110" y="235" as="sourcePoint" />
            <mxPoint x="180" y="220" as="targetPoint" />
          </mxGeometry>
        </mxCell>
        <mxCell id="yjiUdxxGRsqAywd-m_y8-32" value="" style="endArrow=none;html=1;rounded=0;exitX=0.5;exitY=0;exitDx=0;exitDy=0;entryX=0.5;entryY=1;entryDx=0;entryDy=0;" edge="1" parent="1" source="yjiUdxxGRsqAywd-m_y8-8" target="yjiUdxxGRsqAywd-m_y8-1">
          <mxGeometry width="50" height="50" relative="1" as="geometry">
            <mxPoint x="147" y="287" as="sourcePoint" />
            <mxPoint x="180" y="250" as="targetPoint" />
          </mxGeometry>
        </mxCell>
        <mxCell id="yjiUdxxGRsqAywd-m_y8-33" value="" style="endArrow=none;html=1;rounded=0;entryX=0.25;entryY=1;entryDx=0;entryDy=0;exitX=0.5;exitY=0;exitDx=0;exitDy=0;" edge="1" parent="1" source="yjiUdxxGRsqAywd-m_y8-22" target="yjiUdxxGRsqAywd-m_y8-4">
          <mxGeometry width="50" height="50" relative="1" as="geometry">
            <mxPoint x="610" y="180" as="sourcePoint" />
            <mxPoint x="615" y="140" as="targetPoint" />
          </mxGeometry>
        </mxCell>
        <mxCell id="yjiUdxxGRsqAywd-m_y8-35" value="" style="endArrow=none;html=1;rounded=0;exitX=0;exitY=0;exitDx=0;exitDy=0;entryX=1;entryY=1;entryDx=0;entryDy=0;" edge="1" parent="1" source="yjiUdxxGRsqAywd-m_y8-20" target="yjiUdxxGRsqAywd-m_y8-4">
          <mxGeometry width="50" height="50" relative="1" as="geometry">
            <mxPoint x="225" y="310" as="sourcePoint" />
            <mxPoint x="240" y="250" as="targetPoint" />
          </mxGeometry>
        </mxCell>
        <mxCell id="yjiUdxxGRsqAywd-m_y8-36" value="" style="endArrow=none;html=1;rounded=0;exitX=0.5;exitY=0;exitDx=0;exitDy=0;entryX=0.5;entryY=1;entryDx=0;entryDy=0;" edge="1" parent="1" source="yjiUdxxGRsqAywd-m_y8-19">
          <mxGeometry width="50" height="50" relative="1" as="geometry">
            <mxPoint x="637.5" y="290" as="sourcePoint" />
            <mxPoint x="652.5" y="230" as="targetPoint" />
          </mxGeometry>
        </mxCell>
      </root>
    </mxGraphModel>
  </diagram>
</mxfile>
